<?xml version="1.0" encoding="utf-8"?>
<svg version="1.1" id="Layer_1" xmlns="http://www.w3.org/2000/svg" xmlns:xlink="http://www.w3.org/1999/xlink" x="0px" y="0px"
	 viewBox="0 0 221.0776367 112.0874023" enable-background="new 0 0 221.0776367 112.0874023" xml:space="preserve">
<g>
	<path fill="#ffffff" d="M56.9150391,112.0874023L0,55.1728516L55.3662109,0l11.809082,11.6152344L23.2304688,55.1728516l45.2998047,45.105957
		L56.9150391,112.0874023z M54.3984375,55.3662109c0-8.3242188,6.5820313-14.7128906,14.7124023-14.7128906
		c8.324707,0,15.1000977,6.3886719,15.1000977,14.7128906c0,8.1308594-6.7753906,14.90625-15.1000977,14.90625
		C60.9804688,70.2724609,54.3984375,63.4970703,54.3984375,55.3662109z M95.4389648,55.3662109
		c0-8.3242188,6.7758789-14.7128906,15.1000977-14.7128906c7.9370117,0,14.7124023,6.3886719,14.7124023,14.7128906
		c0,8.1308594-6.7753906,14.90625-14.7124023,14.90625C102.2148438,70.2724609,95.4389648,63.4970703,95.4389648,55.3662109z
		 M136.4799805,55.3662109c0-8.3242188,6.7753906-14.7128906,14.90625-14.7128906
		c8.3242188,0,14.90625,6.3886719,14.90625,14.7128906c0,8.1308594-6.5820313,14.90625-14.90625,14.90625
		C143.2553711,70.2724609,136.4799805,63.4970703,136.4799805,55.3662109z M152.7412109,100.2788086l45.2998047-45.105957
		l-43.9448242-43.5576172L165.7114258,0l55.3662109,55.1728516l-56.7211914,56.9145508L152.7412109,100.2788086z"/>
</g>
</svg>
